<?xml version="1.0" encoding="iso-8859-1"?>
<!-- Generator: Adobe Illustrator 19.0.0, SVG Export Plug-In . SVG Version: 6.00 Build 0)  -->
<svg version="1.1" id="Layer_1" xmlns="http://www.w3.org/2000/svg" xmlns:xlink="http://www.w3.org/1999/xlink" x="0px" y="0px"
	 viewBox="0 0 366.156 366.156" style="enable-background:new 0 0 366.156 366.156;" xml:space="preserve">
<g id="XMLID_896_">
	<g id="XMLID_897_">
		<g id="XMLID_898_">
			<path id="XMLID_53_" style="fill:#A0CFF1;" d="M92.303,223.045c0,50.054,40.722,90.776,90.776,90.776
				s90.776-40.722,90.776-90.776h34.313c0,68.974-56.114,125.088-125.089,125.088S57.99,292.019,57.99,223.045H92.303z"/>
		</g>
		<path id="XMLID_51_" style="fill:#C1E8E6;" d="M183.079,348.133V313.82c-50.054,0-90.776-40.722-90.776-90.776H57.99
			C57.99,292.019,114.104,348.133,183.079,348.133z"/>
	</g>
	<g id="XMLID_899_">
		<path id="XMLID_49_" style="fill:#A0CFF1;" d="M250.405,217.86l48.156-35.349c7.748-5.688,18.791-1.781,21.24,7.513l15.219,57.766
			c2.788,10.582-7.405,19.967-17.721,16.318l-63.375-22.417C243.608,238.042,241.584,224.335,250.405,217.86z"/>
		<path id="XMLID_48_" style="fill:#C1E8E6;" d="M115.752,217.86l-48.156-35.349c-7.748-5.688-18.791-1.781-21.24,7.513
			L31.137,247.79c-2.788,10.582,7.405,19.967,17.721,16.318l63.375-22.417C122.55,238.042,124.574,224.335,115.752,217.86z"/>
	</g>
	<g id="XMLID_900_">
		<path id="XMLID_46_" style="fill:#C1E8E6;" d="M204.996,344.186l-15.206,18.769c-3.457,4.267-9.966,4.267-13.423,0l-15.206-18.769
			c-4.575-5.647-0.556-14.075,6.711-14.075h30.412C205.552,330.111,209.571,338.539,204.996,344.186z"/>
		<path id="XMLID_901_" style="fill:#A0CFF1;" d="M198.285,330.111h-15.206v36.045c2.491,0,4.983-1.067,6.711-3.2l15.206-18.769
			C209.571,338.539,205.552,330.111,198.285,330.111z"/>
	</g>
	<g id="XMLID_902_">
		<g id="XMLID_903_">
			<path id="XMLID_904_" style="fill:#C1E8E6;" d="M183.079,135.33c-37.311,0-67.665-30.354-67.665-67.665S145.768,0,183.079,0
				s67.665,30.354,67.665,67.665S220.389,135.33,183.079,135.33z M183.079,32.807c-19.221,0-34.858,15.637-34.858,34.858
				s15.637,34.858,34.858,34.858s34.858-15.637,34.858-34.858S202.3,32.807,183.079,32.807z"/>
		</g>
		<path id="XMLID_907_" style="fill:#A0CFF1;" d="M183.079,0v32.807c19.221,0,34.858,15.637,34.858,34.858
			s-15.637,34.858-34.858,34.858v32.807c37.311,0,67.665-30.354,67.665-67.665S220.389,0,183.079,0z"/>
	</g>
	<g id="XMLID_908_">
		<g id="XMLID_909_">
			<rect id="XMLID_910_" x="166.675" y="102.522" style="fill:#C1E8E6;" width="32.807" height="227.589"/>
		</g>
		<rect id="XMLID_911_" x="183.079" y="102.522" style="fill:#A0CFF1;" width="16.404" height="227.589"/>
	</g>
	<g id="XMLID_912_">
		<rect id="XMLID_33_" x="131.694" y="132.254" style="fill:#FF628B;" width="102.769" height="37.933"/>
		<rect id="XMLID_913_" x="183.079" y="132.254" style="fill:#CF476A;" width="51.384" height="37.933"/>
	</g>
</g>
<g>
</g>
<g>
</g>
<g>
</g>
<g>
</g>
<g>
</g>
<g>
</g>
<g>
</g>
<g>
</g>
<g>
</g>
<g>
</g>
<g>
</g>
<g>
</g>
<g>
</g>
<g>
</g>
<g>
</g>
</svg>
